# xmcd
#
# Track frame offsets:
#	150
#	12685
#	32377
#	47192
#	58910
#	71845
#	82367
#	96262
#	112362
#	129555
#	145465
#	160372
#	170482
#
# Disc length: 2627 seconds
#
# Revision: 1
# Processed by: cddbd v1.5.2PL0 Copyright (c) Steve Scherf et al.
# Submitted via: audiograbber 1.83.01
#
DISCID=cd0a410d
DTITLE=McLeod - An Alaskan Band - Bluegrass and Beyond
DYEAR=1998
DGENRE=Bluegrass
TTITLE0=Red Sky
TTITLE1=Augustine
TTITLE2=I Should Have Known
TTITLE3=On and On
TTITLE4=Shenandoah Breakdown
TTITLE5=Old Time Railroad Song
TTITLE6=If You're Ever in Oklahoma
TTITLE7=Great Divide
TTITLE8=Dream-time Lovin'
TTITLE9=Cold and Frosty Morning
TTITLE10=Deep Clear Whiskey
TTITLE11=Green Rolling Hills
TTITLE12=Roll On, McKinley
EXTD=
EXTT0=
EXTT1=
EXTT2=
EXTT3=
EXTT4=
EXTT5=
EXTT6=
EXTT7=
EXTT8=
EXTT9=
EXTT10=
EXTT11=
EXTT12=
PLAYORDER=
